<?xml version="1.0" encoding="UTF-8" standalone="no"?>
<svg width="100px" height="100px" viewBox="0 0 100 100" version="1.1" xmlns="http://www.w3.org/2000/svg" xmlns:xlink="http://www.w3.org/1999/xlink" xmlns:sketch="http://www.bohemiancoding.com/sketch/ns">
    <!-- Generator: Sketch 3.0.4 (8054) - http://www.bohemiancoding.com/sketch -->
    <title>emotions</title>
    <desc>Created with Sketch.</desc>
    <defs></defs>
    <g id="Page-1" stroke="none" stroke-width="1" fill="none" fill-rule="evenodd" sketch:type="MSPage">
        <g id="square" sketch:type="MSLayerGroup" transform="translate(-306.000000, -69.000000)">
            <g id="Group" transform="translate(41.000000, 69.000000)" sketch:type="MSShapeGroup">
                <g id="emotions" transform="translate(265.000000, 0.000000)">
                    <circle id="Oval-7" fill="#865E5E" cx="50" cy="50" r="50"></circle>
                    <path d="M23.8663057,23.8649114 C9.44408568,38.2871314 9.44548,61.7522584 23.8677,76.1758728 C38.2864342,90.5966985 61.7515612,90.5966985 76.1737812,76.1723869 C90.5953041,61.7522584 90.5939098,38.2885258 76.1751756,23.8690944 C61.7515612,9.44478287 38.2864342,9.44478287 23.8663057,23.8649114 L23.8663057,23.8649114 Z M72.1399936,72.1399936 C59.9438164,84.3354736 40.0962705,84.336868 27.9014877,72.1420851 C15.7025219,59.9431193 15.7039162,40.0955734 27.9014877,27.8993962 C40.0962705,15.7046134 59.9424221,15.703219 72.1413879,27.9014877 C84.3375651,40.0969677 84.3361708,59.9438165 72.1399936,72.1399936 L72.1399936,72.1399936 Z M66.7432514,64.6406065 C67.2005906,65.7009921 66.7132734,66.9321828 65.653585,67.3909163 C64.5931994,67.850347 63.3620088,67.3616354 62.9032752,66.3012498 C60.8863814,61.6379236 56.119875,58.6240861 50.7586881,58.6240861 C45.272709,58.6240861 40.4769218,61.6358321 38.5422932,66.2963697 C38.2076548,67.1001991 37.4296204,67.5861221 36.6104533,67.5868192 C36.3420454,67.5868192 36.071546,67.5352291 35.8087154,67.4264716 C34.7413582,66.9823785 34.2359147,65.7581595 34.6800078,64.6921966 C37.265787,58.4651328 43.5786019,54.4418026 50.7593853,54.4418026 C57.7895814,54.4418026 64.0640523,58.4449151 66.7432514,64.6406065 L66.7432514,64.6406065 Z M33.7088591,39.3098702 C33.2375766,38.490006 33.520625,37.4442608 34.3404892,36.9736755 L40.6463325,33.3512143 C41.4661967,32.8813261 42.5119418,33.1643745 42.9832243,33.9835415 C43.4545068,34.8034057 43.1714584,35.8491509 42.3515942,36.3197362 L36.045751,39.9408031 C35.2251896,40.4120856 34.1794444,40.1297344 33.7088591,39.3098702 L33.7088591,39.3098702 Z M43.493548,39.3837695 C44.6703598,40.5612786 44.6703598,42.4715064 43.493548,43.6469239 C42.3167361,44.8237358 40.4079026,44.8237358 39.2289992,43.6455296 C38.0521873,42.4687177 38.0521873,40.5598842 39.2289992,39.3837695 C40.4065083,38.2062605 42.3153417,38.2062605 43.493548,39.3837695 L43.493548,39.3837695 Z M53.7425476,29.1473188 C53.8269044,28.2061481 54.6579232,27.5110762 55.5983967,27.595433 L62.842622,28.2465836 C63.7837926,28.3309404 64.4795617,29.1619592 64.3938106,30.103827 C64.3094539,31.0456948 63.4784351,31.7400696 62.5365672,31.6550157 L55.2937363,31.0045622 C54.3525657,30.9202054 53.6567965,30.0877923 53.7425476,29.1473188 L53.7425476,29.1473188 Z M61.4754845,39.3342709 C62.6522964,40.5110828 62.6522964,42.4199163 61.4754845,43.596031 C60.2965811,44.7742372 58.3870505,44.7742372 57.2109357,43.5974253 C56.0341239,42.4213106 56.0341239,40.51178 57.2109357,39.3342709 C58.3884448,38.1560647 60.2972783,38.1560647 61.4754845,39.3342709 L61.4754845,39.3342709 Z" id="Shape" stroke="#6D6E70" fill="#FFFFFF"></path>
                </g>
            </g>
        </g>
    </g>
</svg>