<?xml version="1.0" encoding="UTF-8" standalone="no"?>
<svg width="100px" height="100px" viewBox="0 0 100 100" version="1.1" xmlns="http://www.w3.org/2000/svg" xmlns:xlink="http://www.w3.org/1999/xlink" xmlns:sketch="http://www.bohemiancoding.com/sketch/ns">
    <!-- Generator: Sketch 3.0.4 (8054) - http://www.bohemiancoding.com/sketch -->
    <title>health</title>
    <desc>Created with Sketch.</desc>
    <defs></defs>
    <g id="Page-1" stroke="none" stroke-width="1" fill="none" fill-rule="evenodd" sketch:type="MSPage">
        <g id="square" sketch:type="MSLayerGroup" transform="translate(-59.000000, -321.000000)">
            <g id="Group" transform="translate(41.000000, 84.000000)" sketch:type="MSShapeGroup">
                <g id="health" transform="translate(18.000000, 237.000000)">
                    <circle id="Oval-7" fill="#0C7489" cx="50" cy="50" r="50"></circle>
                    <g id="Group" transform="translate(22.522523, 23.423423)" fill="#FFFFFF">
                        <path d="M27.6207914,43.7417908 C27.4376082,44.2223387 26.9807278,44.5401728 26.4710475,44.5445119 C25.9527469,44.5445119 25.496944,44.2353558 25.306218,43.7591469 L15.9886592,20.495422 L12.6514927,27.4064166 C12.4446034,27.8370656 12.009274,28.10934 11.5329977,28.10934 L3.51603957,28.10934 C3.60763116,28.2666299 3.67874934,28.4195808 3.77357357,28.5779555 L5.93729023,31.7194153 C6.47498675,32.4201691 7.05794029,33.1111601 7.69477124,33.8064902 C14.9337396,41.667733 19.9184773,47.4885457 23.0056527,51.2266225 C25.2286345,53.9265858 28.7295884,53.9602133 30.9601131,51.2667586 C33.9104399,47.6827174 38.6117824,42.1439419 45.3324501,34.7589079 L31.0463169,34.7610774 L27.6207914,43.7417908 Z" id="Shape"></path>
                        <path d="M40.2378025,-0.491395477 C36.4944003,-0.48380217 33.0774951,0.967604339 30.5150857,3.33020776 C27.9515987,5.71233683 25.9064123,5.71233683 23.3289172,3.34322486 C20.7578873,0.987129987 17.3474474,-0.452344181 13.5975799,-0.438242324 C7.81437908,-0.432818533 2.83718424,3.00044126 0.54954955,7.94476926 C-0.91914856,11.1274499 -0.697173644,16.9742967 0.240293234,20.3554881 C0.688553259,21.9728627 1.35340046,23.8147821 2.27039392,25.744567 C2.43525879,25.6632101 2.61520933,25.6078875 2.81240064,25.6078875 L10.7582406,25.6078875 L14.9800742,16.8658209 C15.1955838,16.42107 15.7052641,16.1325244 16.1405935,16.1639823 C16.633033,16.1813385 17.0672849,16.4872403 17.2526232,16.946093 L26.4354884,39.8757124 L29.033457,33.062346 C29.2187953,32.5796286 29.6799859,32.2607097 30.1950539,32.2607097 L46.2591415,32.2607097 C46.594259,32.2607097 46.89705,32.3973892 47.1201025,32.6132561 C47.5004769,32.0914874 47.9530472,31.4569038 48.4034623,30.8212355 C49.5693694,29.1919287 51.9830772,25.4148005 53.1101925,22.0954403 C54.6866455,17.435319 54.6866455,14.0009744 54.6866455,14.0009744 C54.6704822,5.97810259 48.1976506,-0.510921125 40.2378025,-0.491395477 L40.2378025,-0.491395477 Z" id="Shape"></path>
                    </g>
                </g>
            </g>
        </g>
    </g>
</svg>