<?xml version="1.0" encoding="UTF-8" standalone="no"?>
<svg width="100px" height="100px" viewBox="0 0 100 100" version="1.1" xmlns="http://www.w3.org/2000/svg" xmlns:xlink="http://www.w3.org/1999/xlink" xmlns:sketch="http://www.bohemiancoding.com/sketch/ns">
    <!-- Generator: Sketch 3.0.4 (8054) - http://www.bohemiancoding.com/sketch -->
    <title>emotions</title>
    <desc>Created with Sketch.</desc>
    <defs></defs>
    <g id="Page-1" stroke="none" stroke-width="1" fill="none" fill-rule="evenodd" sketch:type="MSPage">
        <g id="square" sketch:type="MSLayerGroup" transform="translate(-306.000000, -84.000000)">
            <g id="Group" transform="translate(41.000000, 84.000000)" sketch:type="MSShapeGroup">
                <g id="emotions" transform="translate(265.000000, 0.000000)">
                    <circle id="Oval-7" fill="#FF9900" cx="50" cy="50" r="50"></circle>
                    <g id="smiling36" transform="translate(13.000000, 13.000000)" fill="#FFFFFF">
                        <path d="M63.1911132,10.8123774 C48.7485472,-3.63088679 25.2507547,-3.63088679 10.8109811,10.8088868 C-3.63158491,25.2500566 -3.63018868,48.7485472 10.8123774,63.1911132 C25.2507547,77.6308868 48.7485472,77.6308868 63.189717,63.1883208 C77.6308868,48.7485472 77.6294906,25.2514528 63.1911132,10.8123774 L63.1911132,10.8123774 Z M59.1497358,59.1497358 C46.9369434,71.3625283 27.0637547,71.3639245 14.8509623,59.1511321 C2.63537736,46.9362453 2.63677358,27.0616604 14.8509623,14.8488679 C27.0637547,2.63677358 46.9355472,2.63537736 59.1511321,14.8502642 C71.3639245,27.0630566 71.3625283,46.9376415 59.1497358,59.1497358 L59.1497358,59.1497358 Z M23.1850377,26.9757925 C23.1850377,24.5861509 25.1236981,22.6467925 27.5140377,22.6467925 C29.9036792,22.6467925 31.8423396,24.5854528 31.8423396,26.9757925 C31.8423396,29.3675283 29.9036792,31.3061887 27.5140377,31.3061887 C25.1236981,31.3061887 23.1850377,29.3675283 23.1850377,26.9757925 L23.1850377,26.9757925 Z M42.8138868,26.9757925 C42.8138868,24.5861509 44.7546415,22.6467925 47.144283,22.6467925 C49.5339245,22.6467925 51.473283,24.5854528 51.473283,26.9757925 C51.473283,29.3675283 49.5346226,31.3061887 47.144283,31.3061887 C44.7546415,31.3061887 42.8138868,29.3675283 42.8138868,26.9757925 L42.8138868,26.9757925 Z M53.0482264,44.7064717 C50.3653774,50.9106038 44.0823585,54.9191698 37.0418868,54.9191698 C29.8506226,54.9191698 23.5306038,50.8903585 20.9406038,44.6548113 C20.4966038,43.5866981 21.0027358,42.3608113 22.0715472,41.9175094 C22.3340377,41.8086038 22.6063019,41.7569434 22.8743774,41.7569434 C23.6953585,41.7569434 24.4744528,42.2428302 24.8088491,43.0484528 C26.7475094,47.7153396 31.5491321,50.7304906 37.0418868,50.7304906 C42.4103774,50.7304906 47.1840755,47.7132453 49.203717,43.043566 C49.6630755,41.9817358 50.8959434,41.4923585 51.9570755,41.9524151 C53.0189057,42.4117736 53.5075849,43.6446415 53.0482264,44.7064717 L53.0482264,44.7064717 Z" id="Shape"></path>
                    </g>
                </g>
            </g>
        </g>
    </g>
</svg>