<?xml version="1.0" encoding="UTF-8" standalone="no"?>
<svg width="480px" height="480px" viewBox="0 0 480 480" version="1.1" xmlns="http://www.w3.org/2000/svg" xmlns:xlink="http://www.w3.org/1999/xlink" xmlns:sketch="http://www.bohemiancoding.com/sketch/ns">
    <!-- Generator: Sketch 3.0.4 (8054) - http://www.bohemiancoding.com/sketch -->
    <title>square</title>
    <desc>Created with Sketch.</desc>
    <defs></defs>
    <g id="Page-1" stroke="none" stroke-width="1" fill="none" fill-rule="evenodd" sketch:type="MSPage">
        <g id="square" sketch:type="MSLayerGroup" transform="translate(2.000000, 2.000000)">
            <g id="arrow-back" transform="translate(121.000000, 105.000000)">
                <path d="M17.9048713,23 L0,11.5 L17.9048713,0 L17.9048713,23 Z" id="Triangle-1" fill="#865E5E" sketch:type="MSShapeGroup"></path>
                <text id="health-sign-2" sketch:type="MSTextLayer" font-family="Arial" font-size="12" font-weight="normal" fill="#000000">
                    <tspan x="20" y="16">ОБРАТНО</tspan>
                </text>
            </g>
            <circle id="circle-bg" stroke="#979797" stroke-width="3" stroke-dasharray="9" opacity="0.288945896" fill="#FFFFFF" sketch:type="MSShapeGroup" cx="238" cy="238" r="238"></circle>
            <g id="Group" transform="translate(41.000000, 69.000000)">
                <rect id="rectangle-main" stroke="#979797" stroke-width="2" sketch:type="MSShapeGroup" x="75" y="56" width="245" height="245"></rect>
                <text id="health-sign" sketch:type="MSTextLayer" font-family="Arial" font-size="16" font-weight="normal" fill="#000000">
                    <tspan x="129" y="325">ЗДОРОВЬЕ</tspan>
                </text>
                <text id="problem-title" sketch:type="MSTextLayer" font-family="Arial" font-size="34" font-weight="bold" fill="#000000">
                    <tspan x="95" y="186">ПРОБЛЕМЫ</tspan>
                </text>
                <text id="emotions-sign" sketch:type="MSTextLayer" font-family="Arial" font-size="16" font-weight="normal" fill="#000000">
                    <tspan x="192" y="51">ЭМОЦИИ</tspan>
                </text>
                <text id="work-sign" sketch:type="MSTextLayer" font-family="Arial" font-size="16" font-weight="normal" fill="#000000">
                    <tspan x="0" y="134">РАБОТА</tspan>
                </text>
                <text id="family-sign" sketch:type="MSTextLayer" font-family="Arial" font-size="16" font-weight="normal" fill="#000000">
                    <tspan x="330" y="233">СЕМЬЯ</tspan>
                </text>
                <g id="health" transform="translate(18.000000, 237.000000)" sketch:type="MSShapeGroup">
                    <circle id="Oval-7" fill="#865E5E" cx="55.5" cy="55.5" r="55.5"></circle>
                    <g id="Group" transform="translate(25.000000, 26.000000)" fill="#FFFFFF">
                        <path d="M30.6590784,48.5533878 C30.4557451,49.0867959 29.9486078,49.4395918 29.3828627,49.4444082 C28.807549,49.4444082 28.3016078,49.1012449 28.089902,48.5726531 L17.7474118,22.7499184 L14.0431569,30.4211224 C13.8135098,30.8991429 13.3302941,31.2013673 12.8016275,31.2013673 L3.90280392,31.2013673 C4.00447059,31.3759592 4.08341176,31.5457347 4.18866667,31.7215306 L6.59039216,35.208551 C7.18723529,35.9863878 7.83431373,36.7533878 8.54119608,37.5252041 C16.576451,46.2511837 22.1095098,52.7122857 25.5362745,56.861551 C28.0037843,59.8585102 31.8898431,59.8958367 34.3657255,56.906102 C37.6405882,52.9278163 42.8590784,46.7797755 50.3190196,38.5823878 L34.4614118,38.5847959 L30.6590784,48.5533878 Z" id="Shape"></path>
                        <path d="M44.6639608,-0.54544898 C40.5087843,-0.537020408 36.7160196,1.07404082 33.8717451,3.69653061 C31.0262745,6.34069388 28.7561176,6.34069388 25.895098,3.71097959 C23.0412549,1.09571429 19.2556667,-0.502102041 15.0933137,-0.48644898 C8.67396078,-0.480428571 3.14927451,3.3304898 0.61,8.81869388 C-1.0202549,12.3514694 -0.773862745,18.8414694 0.26672549,22.5945918 C0.764294118,24.3898776 1.50227451,26.4344082 2.52013725,28.5764694 C2.70313725,28.4861633 2.90288235,28.4247551 3.12176471,28.4247551 L11.9416471,28.4247551 L16.6278824,18.7210612 C16.867098,18.2273878 17.4328431,17.907102 17.9160588,17.9420204 C18.4626667,17.9612857 18.9446863,18.3008367 19.1504118,18.8101633 L29.3433922,44.2620408 L32.2271373,36.6992041 C32.4328627,36.1633878 32.9447843,35.8093878 33.5165098,35.8093878 L51.3476471,35.8093878 C51.7196275,35.8093878 52.0557255,35.961102 52.3033137,36.2007143 C52.7255294,35.621551 53.2278824,34.9171633 53.7278431,34.2115714 C55.022,32.4030408 57.7012157,28.2104286 58.9523137,24.5259388 C60.7021765,19.3532041 60.7021765,15.5410816 60.7021765,15.5410816 C60.6842353,6.63569388 53.4993922,-0.567122449 44.6639608,-0.54544898 L44.6639608,-0.54544898 Z" id="Shape"></path>
                    </g>
                </g>
                <g id="emotions" transform="translate(265.000000, 0.000000)" sketch:type="MSShapeGroup">
                    <circle id="Oval-7" fill="#865E5E" cx="55.5" cy="55.5" r="55.5"></circle>
                    <path d="M26.4915993,26.4900517 C10.4829351,42.4987159 10.4844828,68.5450068 26.493147,84.5552188 C42.497942,100.562335 68.5442329,100.562335 84.5528972,84.5513495 C100.560788,68.5450068 100.55924,42.5002636 84.5544449,26.4946948 C68.5442329,10.483709 42.497942,10.483709 26.4915993,26.4900517 L26.4915993,26.4900517 Z M80.0753929,80.0753929 C66.5376362,93.6123757 44.5068603,93.6139234 30.9706513,80.0777145 C17.4297993,66.5368624 17.431347,44.5060865 30.9706513,30.9683298 C44.5068603,17.4321208 66.5360885,17.4305731 80.0769406,30.9706514 C93.6146973,44.5076342 93.6131496,66.5376363 80.0753929,80.0753929 L80.0753929,80.0753929 Z M74.0850091,71.7510733 C74.5926556,72.9281013 74.0517335,74.2947229 72.8754793,74.8039171 C71.6984513,75.3138852 70.3318297,74.7714153 69.8226355,73.5943873 C67.5838833,68.4180952 62.2930612,65.0727355 56.3421438,65.0727355 C50.252707,65.0727355 44.9293832,68.4157736 42.7819455,73.5889704 C42.4104968,74.481221 41.5468786,75.0205955 40.6376032,75.0213693 C40.3396704,75.0213693 40.0394161,74.9641043 39.7476741,74.8433835 C38.5629076,74.3504402 38.0018653,72.9915571 38.4948086,71.8083383 C41.3650235,64.8962974 48.3722481,60.4304009 56.3429177,60.4304009 C64.1464354,60.4304009 71.1110981,64.8738557 74.0850091,71.7510733 L74.0850091,71.7510733 Z M37.4168336,43.6339559 C36.8937101,42.7239067 37.2078937,41.5631295 38.117943,41.0407798 L45.117429,37.0198479 C46.0274783,36.498272 47.1882554,36.8124557 47.711379,37.7217311 C48.2345026,38.6317804 47.9203189,39.7925575 47.0102696,40.3149072 L40.0107836,44.3342915 C39.0999604,44.857415 37.9391833,44.5440052 37.4168336,43.6339559 L37.4168336,43.6339559 Z M48.2778382,43.7159842 C49.5840994,45.0230192 49.5840994,47.1433721 48.2778382,48.4480856 C46.971577,49.7543468 44.8527719,49.7543468 43.5441891,48.4465379 C42.2379279,47.1402767 42.2379279,45.0214715 43.5441891,43.7159842 C44.8512242,42.4089491 46.9700293,42.4089491 48.2778382,43.7159842 L48.2778382,43.7159842 Z M59.6542279,32.3535238 C59.7478639,31.3088244 60.6702948,30.5372946 61.7142204,30.6309306 L69.7553104,31.3537078 C70.8000098,31.4473438 71.5723135,32.3697747 71.4771298,33.415248 C71.3834938,34.4607212 70.4610629,35.2314773 69.4155896,35.1370674 L61.3760473,34.415064 C60.3313479,34.321428 59.5590442,33.3974494 59.6542279,32.3535238 L59.6542279,32.3535238 Z M68.2377878,43.6610407 C69.544049,44.9673019 69.544049,47.0861071 68.2377878,48.3915944 C66.929205,49.6994033 64.809626,49.6994033 63.5041387,48.3931421 C62.1978775,47.0876548 62.1978775,44.9680758 63.5041387,43.6610407 C64.8111737,42.3532318 66.9299789,42.3532318 68.2377878,43.6610407 L68.2377878,43.6610407 Z" id="Shape" stroke="#6D6E70" fill="#FFFFFF"></path>
                </g>
                <g id="work" transform="translate(18.000000, 0.000000)" sketch:type="MSShapeGroup">
                    <circle id="Oval-8" fill="#865E5E" cx="55.5" cy="55.5" r="55.5"></circle>
                    <g id="Group" transform="translate(26.000000, 23.000000)" fill="#FFFFFF">
                        <circle id="Oval" cx="46.2694375" cy="7.5194375" r="7.5194375"></circle>
                        <path d="M30.2346875,47.4358125 L30.2346875,45.5796875 C30.2346875,44.078125 30.9670625,42.6269375 32.1683125,41.7008125 L32.1683125,35.3535625 L25.22625,35.3535625 C22.5428125,35.3535625 20.386375,33.2339375 20.386375,30.554375 C20.386375,30.1165 20.584,29.7541875 20.584,29.34925 L20.584,27.6306875 L21.3919375,27.6306875 C22.2831875,26.34225 23.6665625,25.699 25.22625,25.699 L31.589,25.699 C31.65875,25.377375 31.8466875,25.2708125 31.8466875,25.0150625 L31.8466875,7.7906875 C31.8466875,6.3530625 30.5195,5.1014375 29.0838125,5.1014375 L7.6395625,5.1014375 C6.2019375,5.1014375 5.134375,6.3530625 5.134375,7.7906875 L5.134375,25.017 C5.134375,26.454625 6.2019375,27.632625 7.6395625,27.632625 L16.399,27.632625 L16.399,29.884 L13.454,29.884 C12.1616875,29.884 11.1135,30.848875 11.1135,32.4589375 L1.1005,32.4589375 C0.434,32.4589375 -0.0155,32.832875 -0.0155,33.50325 L-0.0155,36.227375 C-0.0155,36.8919375 0.4320625,37.28525 1.1005,37.28525 L4.4891875,37.28525 L4.4891875,61.74425 L32.809625,61.74425 L32.809625,50.727625 C32.8115625,50.727625 30.2346875,50.1831875 30.2346875,47.4358125 L30.2346875,47.4358125 Z M11.4235,23.76925 C9.9878125,23.76925 8.6741875,22.7443125 8.6741875,21.3105625 L8.6741875,11.501 C8.6741875,10.063375 9.9878125,8.9648125 11.4235,8.9648125 L25.369625,8.9648125 C26.80725,8.9648125 27.98525,10.063375 27.98525,11.501 L27.98525,21.3105625 C27.98525,22.7443125 26.8091875,23.76925 25.369625,23.76925 L11.4235,23.76925 L11.4235,23.76925 Z" id="Shape"></path>
                        <path d="M50.6946875,16.464875 L40.745625,16.464875 C34.646375,16.464875 34.2608125,22.5699375 34.2608125,22.5699375 C34.2608125,22.5699375 33.4470625,26.6851875 32.7689375,27.1579375 C32.561625,27.30325 32.3175,27.407875 32.0326875,27.407875 L25.2204375,27.407875 C23.6084375,27.407875 22.3025625,28.6905 22.3025625,30.3044375 C22.3025625,31.9164375 23.6084375,33.201 25.2204375,33.201 L32.0326875,33.201 C33.0905625,33.201 34.0244375,33.2029375 34.150375,33.173875 L34.088375,40.2825625 L37.9575625,40.2825625 L37.9575625,24.5539375 C37.9575625,21.3841875 39.99775,17.7533125 43.2004375,17.7533125 L55.06375,17.7533125 C53.8838125,16.7865 52.355125,16.464875 50.6946875,16.464875 L50.6946875,16.464875 Z" id="Shape"></path>
                        <path d="M58.2044375,48.5479375 C60.3511875,48.5479375 62.096875,46.806125 62.096875,44.6555 L62.096875,24.6818125 C62.096875,22.277375 60.0605625,20.2275 57.6580625,20.2275 L44.1769375,20.2275 C41.7725,20.2275 39.893125,22.277375 39.893125,24.6818125 L39.893125,42.435125 L35.5473125,42.435125 C33.8771875,42.435125 32.4899375,43.7196875 32.4899375,45.3898125 L32.4899375,46.4864375 C32.4899375,47.62375 33.4121875,48.5440625 34.5495,48.5440625 L43.7565,48.5440625 L43.7565,51.119 L42.2820625,51.119 C42.2820625,51.119 38.606625,51.2061875 38.606625,54.6239375 L38.606625,59.5258125 C38.606625,60.632125 39.432,61.5330625 40.544125,61.5330625 C41.6543125,61.5330625 42.5223125,60.624375 42.5223125,59.516125 L42.4913125,54.982375 L49.2260625,54.982375 L49.2260625,59.5258125 C49.2260625,60.632125 50.2045,61.5330625 51.316625,61.5330625 C52.4306875,61.5330625 53.409125,60.632125 53.409125,59.5258125 L53.409125,54.6239375 C53.409125,50.90975 49.464375,51.119 49.464375,51.119 L47.93375,51.119 L47.93375,48.546 L58.2044375,48.546 L58.2044375,48.5479375 Z" id="Shape"></path>
                    </g>
                </g>
                <g id="family" transform="translate(265.000000, 237.000000)" sketch:type="MSShapeGroup">
                    <circle id="Oval-6" fill="#865E5E" cx="55.5" cy="55.5" r="55.5"></circle>
                    <g id="Group" transform="translate(25.064516, 18.500000)" fill="#FFFFFF">
                        <circle id="Oval" cx="20.0999516" cy="7.56769355" r="7.56769355"></circle>
                        <circle id="Oval" cx="39.7935" cy="7.56769355" r="7.56769355"></circle>
                        <path d="M46.2124032,57.7755 C46.1342258,57.7814677 46.0566452,57.7850484 45.9766774,57.7850484 C44.3600161,57.7850484 43.044129,56.4691613 43.044129,54.8513065 C43.044129,45.6884355 48.7928548,41.8750484 49.0375323,41.7169032 C49.0924355,41.6816935 49.1467419,41.6518548 49.2010484,41.6238065 C49.2028387,41.6226129 49.2058226,41.6208226 49.2082097,41.6190323 C49.2010484,41.5838226 49.1938871,41.5498065 49.1855323,41.5145968 C47.9251452,40.4439839 47.1195,38.8523871 47.1195,37.0728065 C47.1195,36.2164355 47.309871,35.4060161 47.642871,34.6731774 C47.5199355,34.1545806 47.4143065,33.7111774 47.3319516,33.3716129 L47.3319516,27.7124032 C47.9872097,29.0760323 48.4962581,30.7869839 48.7946452,32.990871 C49.852129,31.9136935 51.3237742,31.2435161 52.9493871,31.2435161 C53.4835,31.2435161 53.9991129,31.3216935 54.4908548,31.4565645 C53.1152903,22.9943065 48.9319032,19.660129 44.653629,17.0367097 C44.5038387,16.9448065 44.3462903,16.8743871 44.1887419,16.8123226 C43.3443065,16.2543387 42.3984194,15.8467419 41.4334355,15.6157903 C41.4274677,15.6145968 41.4209032,15.614 41.4149355,15.6128065 L39.5870161,17.5314355 L37.7018065,15.6330968 C36.6532742,15.8909032 35.6286129,16.3587742 34.7334516,16.9973226 C34.7071935,17.0122419 34.6791452,17.02 34.6534839,17.0361129 C32.9759516,18.0643548 31.3139355,19.2018065 29.8309516,20.7128387 C28.3527419,19.1379516 26.6471613,17.9056129 24.8830968,16.8230645 C24.6240968,16.663129 24.3483871,16.5634677 24.0673065,16.4930484 C23.3792258,16.1075323 22.6374355,15.8169032 21.8860968,15.6325 L20.0008871,17.5308387 L18.1729677,15.6122097 C18.167,15.6134032 18.1604355,15.614 18.1544677,15.6151935 C17.1900806,15.8461452 16.2447903,16.2537419 15.4003548,16.811129 C15.2410161,16.8731935 15.0840645,16.9436129 14.9342742,17.0361129 C10.4489194,19.7872419 6.35385484,23.5707903 5.61266129,31.9005645 C6.41114516,31.4822258 7.31585484,31.2423226 8.27785484,31.2423226 C9.4558871,31.2423226 10.5509677,31.5985968 11.4640323,32.2073065 C11.6042742,30.7410323 11.8746129,29.4973548 12.2559516,28.4297258 L12.2559516,32.8446613 C13.3540161,33.8949839 14.0420968,35.3702097 14.0420968,37.0059677 C14.0420968,38.4740323 13.4835161,39.8096129 12.5764194,40.8283065 C12.6098387,40.9267742 12.6396774,41.0264355 12.6784677,41.1219194 C12.6581774,41.2746935 12.6438548,41.4286613 12.6438548,41.5862097 L12.6438548,41.9221935 C12.6713065,41.9442742 12.7011452,41.9663548 12.728,41.9890323 C13.7902581,42.7767742 18.3531935,46.633129 18.3531935,54.7432903 C18.3531935,56.3474194 17.0480484,57.6531613 15.4433226,57.6531613 C14.8298387,57.6531613 14.2617097,57.4627903 13.7902581,57.1375484 C13.7699677,57.188871 13.7478871,57.2407903 13.7252097,57.2921129 L13.7240161,71.3897097 C13.7240161,71.6505 13.6911935,71.9023387 13.6356935,72.1458226 C14.2670806,72.7909355 15.1449355,73.1931613 16.1182742,73.1931613 C18.0363065,73.1925645 19.5909032,71.6385645 19.5909032,69.7205323 L19.5867258,45.5756452 C19.7239839,45.5828065 19.8606452,45.5929516 19.9996935,45.5929516 C20.0265484,45.5929516 20.054,45.5899677 20.0808548,45.589371 L20.0796613,69.7205323 C20.0796613,71.6385645 21.6342581,73.1931613 23.5522903,73.1931613 C25.4697258,73.1931613 27.0243226,71.6385645 27.0243226,69.721129 L27.0255161,41.759871 C27.0696774,41.6757258 27.1126452,41.5915806 27.1538226,41.5056452 C27.1967903,41.5074355 27.2397581,41.5181774 27.2827258,41.5181774 C27.2964516,41.5181774 27.311371,41.5181774 27.3245,41.5175806 C28.1945968,41.5056452 28.9680161,41.1147581 29.4985484,40.5066452 C29.6859355,40.6743387 29.8971935,40.8175645 30.1251613,40.9339355 C28.9089355,46.4344032 27.5536613,52.8700161 27.5476935,54.279 C27.5417258,55.4337581 29.6244677,56.4232097 32.5611935,57.0462419 L32.5611935,69.721129 C32.5611935,71.6391613 34.1157903,73.1931613 36.0332258,73.1931613 C37.9512581,73.1931613 39.5058548,71.6385645 39.5058548,69.7205323 L39.5058548,57.7480484 C39.6687742,57.7486452 39.8346774,57.7486452 39.9975968,57.7474516 L39.9964032,69.7205323 C39.9964032,71.6385645 41.551,73.1925645 43.4690323,73.1931613 C45.3870645,73.1931613 46.9404677,71.6391613 46.9404677,69.721129 L46.9416613,63.9342097 L45.1203065,63.9342097 L46.2124032,57.7755 L46.2124032,57.7755 Z" id="Shape"></path>
                        <ellipse id="Oval" cx="8.60608065" cy="36.6544677" rx="4.42866129" ry="4.42866129"></ellipse>
                        <path d="M15.7972097,56.2304516 C16.6673065,56.2304516 17.3715,55.5256613 17.3715,54.6555645 C17.3715,47.0657903 13.1505161,43.6003226 12.2422258,42.9420806 C11.9360806,42.6681613 11.5392258,42.3954355 11.0110806,42.1077903 C10.6076613,41.8822097 10.175,41.7127258 9.73458065,41.6041129 L8.63114516,42.7147097 L7.56053226,41.5909839 C7.55754839,41.5921774 7.55337097,41.593371 7.5503871,41.5945645 C6.86170968,41.7586774 6.19570968,42.0839194 5.63116129,42.5279194 C5.58341935,42.5517903 5.53508065,42.5708871 5.48972581,42.5995323 C5.27309677,42.7391774 0.186193548,46.115129 0.186193548,54.4359516 C0.186193548,55.3054516 0.890387097,56.0108387 1.76108065,56.0108387 C2.62998387,56.0108387 3.33537097,55.3054516 3.33537097,54.4359516 C3.33537097,52.5447742 3.65106452,50.9961452 4.09745161,49.7339677 L4.09745161,55.2296613 C4.09745161,55.6915645 4.18637097,56.1242258 4.3451129,56.5204839 C4.33258065,56.6094032 4.32422581,56.7007097 4.32422581,56.7926129 L4.32601613,71.3019839 C4.32601613,72.4239194 5.2355,73.334 6.35743548,73.3334032 C7.47996774,73.3334032 8.38885484,72.4239194 8.38885484,71.3019839 L8.38885484,59.1277903 C8.46882258,59.1319677 8.5493871,59.1379355 8.63054839,59.1379355 C8.64546774,59.1379355 8.66217742,59.1367419 8.67769355,59.1361452 L8.67769355,71.3025806 C8.67769355,72.4245161 9.58658065,73.334 10.7091129,73.334 C11.8316452,73.334 12.741129,72.4245161 12.741129,71.3025806 L12.7423226,56.8940645 C13.0078871,56.401129 13.1636452,55.8425484 13.1636452,55.2302581 L13.1636452,49.2004516 C13.7628065,50.5784032 14.221129,52.3687258 14.221129,54.6555645 C14.2223226,55.5256613 14.9265161,56.2304516 15.7972097,56.2304516 L15.7972097,56.2304516 Z" id="Shape"></path>
                        <ellipse id="Oval" cx="52.8336129" cy="36.7207097" rx="4.49490323" ry="4.49490323"></ellipse>
                        <path d="M56.6714677,43.0978387 C56.3617419,42.8197419 55.9595161,42.5428387 55.4230161,42.2504194 C55.013629,42.0218548 54.5732097,41.8493871 54.1268226,41.7401774 L53.0072742,42.8674839 L51.9217419,41.7276452 C51.9181613,41.7288387 51.9139839,41.7300323 51.9098065,41.7300323 C51.2115806,41.897129 50.536629,42.2277419 49.963129,42.6789032 C49.9141935,42.7027742 49.8658548,42.7212742 49.8199032,42.7511129 C49.5996935,42.8925484 44.437,46.3192258 44.437,54.7629839 C44.437,55.6456129 45.1519355,56.3611452 46.0345645,56.3611452 C46.9171935,56.3611452 47.6333226,55.6462097 47.6333226,54.7629839 C47.6333226,52.8443548 47.9531935,51.2724516 48.4061452,49.9917742 L48.4061452,53.2722419 L46.7727742,62.5109032 L48.6370968,62.5109032 L48.6394839,71.8790645 C48.6394839,73.0183065 49.5615,73.9421129 50.7007419,73.9415161 C51.8399839,73.9415161 52.762,73.0183065 52.762,71.8790645 L52.762,62.5109032 L53.0550161,62.5109032 L53.0544194,71.8790645 C53.0544194,73.0183065 53.977629,73.9415161 55.116871,73.9415161 C56.2561129,73.9415161 57.1793226,73.0183065 57.1793226,71.8790645 L57.1793226,62.5109032 L59.2298387,62.5109032 L57.6084032,53.3498226 L57.6084032,49.4487097 C58.2159194,50.8475484 58.682,52.664129 58.682,54.9849839 C58.682,55.8676129 59.3963387,56.5831452 60.2807581,56.5831452 C61.1633871,56.5831452 61.8783226,55.8676129 61.8783226,54.9849839 C61.8783226,47.2824194 57.5940806,43.7650323 56.6714677,43.0978387 L56.6714677,43.0978387 Z" id="Shape"></path>
                    </g>
                </g>
            </g>
        </g>
    </g>
</svg>